<svg width="80" height="40" viewBox="0 0 80 40" fill="none" xmlns="http://www.w3.org/2000/svg">
<g clip-path="url(#clip0_253_784)">
<mask id="mask0_253_784" style="mask-type:luminance" maskUnits="userSpaceOnUse" x="5" y="-1" width="70" height="39">
<path d="M75 -1H5V37.6667H75V-1Z" fill="white"/>
</mask>
<g mask="url(#mask0_253_784)">
<path d="M17.0519 11.0497V18.5393H14.0258C13.7055 18.5393 13.5467 18.6995 13.5467 19.0185V28.9247H5.70813V19.3362C5.70813 17.6591 6.06881 16.2047 6.79146 14.9716C7.51282 13.7398 8.51672 12.7776 9.80188 12.0862C11.0857 11.3961 12.5571 11.0497 14.2133 11.0497H17.0519Z" fill="#292929"/>
<path d="M27.7841 20.8623C28.2529 20.6097 28.5289 20.2555 28.6123 19.7998C28.6982 19.3414 28.5979 18.9274 28.3102 18.555C28.025 18.1839 27.5524 17.9977 26.8935 17.9977C26.3414 17.9768 25.9209 18.1318 25.6331 18.4612C25.3479 18.788 25.2008 19.1695 25.1904 19.607C25.18 20.0419 25.3063 20.4287 25.5706 20.7685C25.8375 21.1097 26.2581 21.2789 26.831 21.2789H35.8466V28.9248H26.831C25.5563 28.9248 24.3675 28.6878 23.2633 28.2112C22.1591 27.732 21.1813 27.068 20.331 26.2164C19.4795 25.3662 18.8154 24.3883 18.3362 23.2841C17.8597 22.18 17.6227 20.9912 17.6227 19.7164C17.6227 18.0393 17.999 16.512 18.7529 15.1331C19.5055 13.7516 20.5784 12.6409 21.9716 11.7998C23.3636 10.9599 25.0146 10.5289 26.9248 10.5081C27.9248 10.5081 28.9274 10.6044 29.9352 10.7945C30.9456 10.986 31.8961 11.3466 32.7893 11.8779C33.6813 12.4091 34.4248 13.1956 35.0185 14.2373C35.2711 14.6852 35.4573 15.2164 35.5758 15.831C35.693 16.4456 35.7347 17.0784 35.7008 17.7268C35.6696 18.3727 35.5367 18.9794 35.305 19.5445C35.0719 20.107 34.7112 20.5472 34.2216 20.8623H27.7841Z" fill="#292929"/>
<path d="M36.4171 28.9248V21.5029H40.24C40.1984 21.417 40.1489 21.3362 40.0942 21.2633C40.0421 21.1878 39.9952 21.1175 39.9536 21.055H37.7869C37.0434 19.9925 36.6515 18.8779 36.6098 17.7112C36.5682 16.542 36.7791 15.5107 37.2452 14.6175C37.7765 13.6006 38.4497 12.831 39.2661 12.3102C40.0851 11.7894 41.0213 11.4443 42.0734 11.2737C43.1254 11.1045 44.2557 11.0185 45.464 11.0185H54.5473V18.2216H45.464C44.8494 18.2216 44.3767 18.4391 44.0473 18.8727C43.7166 19.3076 43.5955 19.7685 43.6827 20.2581C43.7661 20.6409 43.9614 20.9912 44.2713 21.3102C44.5799 21.6305 45.0004 21.7894 45.5317 21.7894C46.1671 21.7894 46.6215 21.5836 46.8963 21.1696C47.1736 20.7529 47.2687 20.292 47.1827 19.7841C47.0994 19.2737 46.8129 18.9013 46.3234 18.6644H52.6984C53.3989 19.4078 53.8768 20.1891 54.1307 21.0081C54.3872 21.8245 54.477 22.6162 54.4015 23.3831C54.3286 24.1474 54.132 24.8362 53.8129 25.4508C53.2817 26.4716 52.6007 27.2269 51.7713 27.7164C50.9445 28.2034 50.0004 28.5263 48.9379 28.6852C47.8754 28.8453 46.74 28.9248 45.5317 28.9248H36.4171Z" fill="#292929"/>
<path d="M66.1733 33.3518V19.9716C66.1733 19.5276 66.0131 19.1461 65.6941 18.8258C65.3738 18.5068 64.9923 18.3466 64.5483 18.3466C64.0795 18.3466 63.6902 18.5068 63.3816 18.8258C63.0756 19.1461 62.9233 19.5276 62.9233 19.9716C62.9233 20.4195 63.0756 20.8037 63.3816 21.1227C63.6902 21.4391 64.0795 21.5966 64.5483 21.5966H65.6941V29.4352H64.5483C63.2527 29.4352 62.03 29.1904 60.8816 28.7008C59.7358 28.2112 58.7266 27.5328 57.8555 26.6643C56.9832 25.7932 56.3035 24.7841 55.8139 23.6383C55.3269 22.4899 55.0847 21.2672 55.0847 19.9716C55.0847 18.6565 55.3269 17.43 55.8139 16.2945C56.3035 15.1565 56.9832 14.1526 57.8555 13.2841C58.7266 12.413 59.7358 11.732 60.8816 11.2425C62.03 10.7529 63.2527 10.5081 64.5483 10.5081C65.8634 10.5081 67.0899 10.7529 68.2253 11.2425C69.3608 11.732 70.3582 12.413 71.2201 13.2841C72.0808 14.1526 72.754 15.1565 73.241 16.2945C73.7305 17.43 73.9753 18.6565 73.9753 19.9716V33.3518H66.1733Z" fill="#292929"/>
</g>
<mask id="mask1_253_784" style="mask-type:luminance" maskUnits="userSpaceOnUse" x="17" y="18" width="58" height="24">
<path d="M17.9999 18H74.3332V41.6666H17.9999V18Z" fill="white"/>
</mask>
<g mask="url(#mask1_253_784)">
<mask id="mask2_253_784" style="mask-type:luminance" maskUnits="userSpaceOnUse" x="18" y="18" width="57" height="24">
<path d="M20.1301 18.2382L74.2954 24.2643L72.3606 41.6575L18.1952 35.6315L20.1301 18.2382Z" fill="white"/>
</mask>
<g mask="url(#mask2_253_784)">
<mask id="mask3_253_784" style="mask-type:luminance" maskUnits="userSpaceOnUse" x="17" y="18" width="58" height="24">
<path d="M74.3332 17.9999H17.9999V41.6666H74.3332V17.9999Z" fill="white"/>
</mask>
<g mask="url(#mask3_253_784)">
<mask id="mask4_253_784" style="mask-type:luminance" maskUnits="userSpaceOnUse" x="19" y="18" width="55" height="23">
<path d="M19.3333 18.6666H73.3332V41H19.3333V18.6666Z" fill="white"/>
</mask>
<g mask="url(#mask4_253_784)">
<mask id="mask5_253_784" style="mask-type:luminance" maskUnits="userSpaceOnUse" x="18" y="18" width="57" height="24">
<path d="M20.1301 18.2382L74.2954 24.2643L72.3606 41.6575L18.1952 35.6315L20.1301 18.2382Z" fill="white"/>
</mask>
<g mask="url(#mask5_253_784)">
<mask id="mask6_253_784" style="mask-type:luminance" maskUnits="userSpaceOnUse" x="18" y="18" width="57" height="24">
<path d="M74.2695 24.2617L20.1029 18.2356L18.168 35.6289L72.3346 41.6549L74.2695 24.2617Z" fill="white"/>
</mask>
<g mask="url(#mask6_253_784)">
<path d="M19.5167 23.7513C19.8071 21.1471 22.018 19.1718 24.7824 18.7877C24.8436 18.7799 24.8605 18.8672 24.8019 18.8841C23.1639 19.3502 21.9204 20.3919 21.5441 21.8281C21.3084 22.7252 21.4451 23.6549 21.8709 24.5221C22.7342 25.8359 25.6068 27.9922 34.5 28.5C46.2904 29.1745 51.229 25.927 61.2355 26.8802C71.2433 27.8346 73.2003 33.8659 73.2003 33.8659L66 34.5C66 34.5 62.3242 33.0468 47.5 33.8659C32.6771 34.6862 24.5167 31.9284 21.5219 28.7213C21.1196 28.2877 20.8019 27.8815 20.5532 27.5013C19.7654 26.4205 19.3657 25.1119 19.5167 23.7513Z" fill="white"/>
</g>
</g>
</g>
</g>
</g>
</g>
<mask id="mask7_253_784" style="mask-type:luminance" maskUnits="userSpaceOnUse" x="5" y="30" width="16" height="4">
<path d="M21 30H5V33.7209H21V30Z" fill="white"/>
</mask>
<g mask="url(#mask7_253_784)">
<path d="M5.48083 32.6631V30.4479H7.30642V30.9421H6.06223V31.3142H7.25409V31.8084H6.06223V32.1689H7.30642V32.6631H5.48083Z" fill="#292929"/>
<path d="M8.22675 32.6979C8.09448 32.6979 7.97093 32.6805 7.85465 32.6456C7.73837 32.6078 7.64244 32.5497 7.56977 32.4712C7.49564 32.3898 7.45785 32.2837 7.45349 32.1514H7.99419C7.99419 32.2023 8.02035 32.2386 8.07558 32.2619C8.12936 32.2852 8.1875 32.2968 8.25 32.2968C8.30814 32.2968 8.35756 32.2895 8.40117 32.2735C8.44332 32.2546 8.46512 32.227 8.46512 32.1921C8.46512 32.1543 8.43605 32.1311 8.37791 32.1224C8.32268 32.1107 8.25291 32.102 8.16861 32.0933C8.09448 32.086 8.01744 32.0758 7.93605 32.0642C7.85465 32.0526 7.77617 32.0337 7.70349 32.0061C7.63372 31.9799 7.57704 31.9363 7.53489 31.8782C7.49128 31.82 7.47239 31.743 7.47675 31.6456C7.47675 31.5497 7.5 31.4683 7.54651 31.4014C7.59303 31.3317 7.65262 31.2779 7.72675 31.2386C7.80378 31.1965 7.88518 31.1674 7.97093 31.1514C8.0596 31.1369 8.14535 31.1282 8.22675 31.1282C8.30378 31.1282 8.38518 31.1369 8.47093 31.1514C8.5596 31.1631 8.64099 31.1892 8.71512 31.227C8.79215 31.2619 8.85465 31.3142 8.90117 31.384C8.94768 31.4508 8.97093 31.5395 8.97093 31.6514H8.44768C8.44768 31.6136 8.42442 31.5846 8.37791 31.5642C8.3314 31.541 8.28053 31.5293 8.22675 31.5293C8.17587 31.5293 8.12936 31.5395 8.08721 31.5584C8.04361 31.5788 8.02326 31.6049 8.02326 31.6398C8.02326 31.6718 8.04651 31.6921 8.09303 31.7038C8.14244 31.7125 8.19768 31.7154 8.25582 31.7154C8.34884 31.7154 8.43896 31.7241 8.52907 31.7386C8.61774 31.7503 8.69913 31.7735 8.77326 31.8084C8.84593 31.8404 8.90407 31.8883 8.94768 31.9538C8.99419 32.0163 9.01744 32.0962 9.01744 32.1921C9.01744 32.3128 8.9782 32.4116 8.90117 32.4886C8.82268 32.5628 8.72384 32.6165 8.60465 32.6514C8.48401 32.682 8.35756 32.6979 8.22675 32.6979Z" fill="#292929"/>
<path d="M10.0392 32.6863C9.81823 32.6863 9.64963 32.6311 9.53335 32.5177C9.41707 32.4058 9.35893 32.2415 9.35893 32.0235V31.5875H9.11475V31.1572H9.35893V30.4479H9.89963V31.1572H10.3764V31.5875H9.89963V32.0235C9.89963 32.0976 9.91853 32.1485 9.95777 32.1747C9.99556 32.2023 10.0421 32.2154 10.0973 32.2154C10.1351 32.2154 10.1743 32.2096 10.2136 32.1979C10.2514 32.1863 10.2863 32.1747 10.3182 32.1631L10.4752 32.5584C10.3895 32.6093 10.3081 32.6442 10.231 32.6631C10.1569 32.6776 10.0929 32.6863 10.0392 32.6863Z" fill="#292929"/>
<path d="M11.5502 32.663L11.3525 32.1572L12.5386 31.3433C12.588 31.3084 12.6258 31.2721 12.6491 31.2328C12.6723 31.195 12.6839 31.1572 12.6839 31.1223C12.6839 31.0569 12.6491 31.0032 12.5793 30.9596C12.5124 30.913 12.4238 30.8898 12.3118 30.8898C12.1956 30.8898 12.0982 30.9189 12.0211 30.977C11.9427 31.0351 11.902 31.1209 11.8991 31.2328H11.3525C11.3525 31.0322 11.3903 30.8709 11.4688 30.7502C11.5459 30.6311 11.6549 30.5439 11.7944 30.4886C11.9339 30.4348 12.0938 30.4072 12.277 30.4072C12.3889 30.4072 12.4979 30.4159 12.6025 30.4305C12.7101 30.4465 12.8089 30.4741 12.8991 30.5119C12.9921 30.5511 13.0691 30.6078 13.1316 30.6805C13.197 30.7502 13.2392 30.8418 13.2595 30.9537C13.2741 31.0162 13.2828 31.0758 13.2828 31.134C13.2828 31.2822 13.2421 31.4101 13.1607 31.5177C13.0822 31.6267 12.9775 31.7197 12.8467 31.7968L12.2304 32.163L13.2479 32.1514V32.663H11.5502Z" fill="#292929"/>
<path d="M14.6092 32.6921C14.426 32.6921 14.2676 32.6616 14.1324 32.5991C14.0001 32.5337 13.8897 32.448 13.801 32.3433C13.7109 32.2357 13.644 32.1151 13.5975 31.9828C13.5539 31.8477 13.5336 31.7081 13.5336 31.5642C13.5336 31.4247 13.5539 31.2895 13.5975 31.1573C13.6397 31.0221 13.7051 30.9014 13.7952 30.7968C13.8882 30.6892 14.0001 30.6035 14.1324 30.541C14.2676 30.4756 14.426 30.4421 14.6092 30.4421C14.7865 30.4421 14.942 30.4756 15.0743 30.541C15.2094 30.6035 15.3214 30.6892 15.4115 30.7968C15.5045 30.9014 15.5714 31.0221 15.615 31.1573C15.6571 31.2895 15.6789 31.4247 15.6789 31.5642C15.6789 31.7081 15.6571 31.8477 15.615 31.9828C15.5714 32.1151 15.5045 32.2357 15.4115 32.3433C15.3214 32.448 15.2094 32.5337 15.0743 32.5991C14.942 32.6616 14.7865 32.6921 14.6092 32.6921ZM14.6092 32.1805C14.7167 32.1805 14.8068 32.1514 14.8766 32.0933C14.9493 32.0323 15.0045 31.9538 15.0394 31.8607C15.0743 31.7648 15.0917 31.666 15.0917 31.5642C15.0917 31.4639 15.0743 31.3666 15.0394 31.2735C15.0045 31.1776 14.9493 31.0991 14.8766 31.041C14.8025 30.9799 14.7138 30.948 14.6092 30.948C14.5001 30.948 14.4086 30.9799 14.3359 31.041C14.2661 31.0991 14.2109 31.1776 14.1731 31.2735C14.1382 31.3666 14.1208 31.4639 14.1208 31.5642C14.1208 31.666 14.1382 31.7648 14.1731 31.8607C14.2109 31.9538 14.2661 32.0323 14.3359 32.0933C14.4086 32.1514 14.5001 32.1805 14.6092 32.1805Z" fill="#292929"/>
<path d="M16.1329 32.663L15.9352 32.1572L17.1212 31.3433C17.1706 31.3084 17.2084 31.2721 17.2317 31.2328C17.2549 31.195 17.2666 31.1572 17.2666 31.1223C17.2666 31.0569 17.2317 31.0032 17.1619 30.9596C17.0951 30.913 17.0064 30.8898 16.8945 30.8898C16.7782 30.8898 16.6808 30.9189 16.6038 30.977C16.5253 31.0351 16.4846 31.1209 16.4817 31.2328H15.9352C15.9352 31.0322 15.973 30.8709 16.0515 30.7502C16.1285 30.6311 16.2375 30.5439 16.377 30.4886C16.5166 30.4348 16.6765 30.4072 16.8596 30.4072C16.9715 30.4072 17.0805 30.4159 17.1852 30.4305C17.2927 30.4465 17.3916 30.4741 17.4817 30.5119C17.5747 30.5511 17.6518 30.6078 17.7143 30.6805C17.7797 30.7502 17.8218 30.8418 17.8422 30.9537C17.8567 31.0162 17.8654 31.0758 17.8654 31.134C17.8654 31.2822 17.8247 31.4101 17.7433 31.5177C17.6648 31.6267 17.5602 31.7197 17.4294 31.7968L16.8131 32.163L17.8305 32.1514V32.663H16.1329Z" fill="#292929"/>
<path d="M19.1974 32.7154C19.1305 32.7154 19.0651 32.711 18.9997 32.7037C18.9329 32.6994 18.8689 32.6877 18.8079 32.6688C18.6945 32.631 18.5898 32.5787 18.4939 32.5119C18.3965 32.4421 18.3166 32.3592 18.2555 32.2619C18.1974 32.1659 18.1683 32.0555 18.1683 31.9305V31.2212C18.1683 31.0787 18.1989 30.9537 18.2614 30.8491C18.3224 30.7444 18.4067 30.6601 18.5114 30.5933C18.616 30.5235 18.7323 30.4741 18.8602 30.4421C18.991 30.4072 19.1247 30.3898 19.2614 30.3898C19.3893 30.3898 19.5128 30.4058 19.6335 30.4363C19.757 30.4639 19.8675 30.5046 19.9648 30.5584C20.0651 30.6092 20.1465 30.6732 20.209 30.7502L19.866 31.1049C19.8079 31.0395 19.7221 30.9915 19.6102 30.9595C19.5012 30.9247 19.3864 30.9072 19.2672 30.9072C19.1741 30.9072 19.0869 30.9188 19.0055 30.9421C18.9241 30.9654 18.8558 31.0031 18.8021 31.0526C18.7512 31.0991 18.7265 31.1616 18.7265 31.2386V31.3374C18.7962 31.2648 18.8733 31.2095 18.959 31.1747C19.0433 31.1369 19.1465 31.1165 19.2672 31.1165C19.3747 31.1165 19.4852 31.1325 19.5986 31.163C19.7148 31.1906 19.821 31.2357 19.9183 31.2967C20.0143 31.3549 20.0928 31.4334 20.1509 31.5293C20.209 31.6267 20.2381 31.7444 20.2381 31.884C20.2381 31.9813 20.2148 32.0816 20.1683 32.1863C20.1247 32.288 20.055 32.381 19.959 32.4654C19.866 32.5467 19.7439 32.6136 19.5928 32.663C19.5259 32.6819 19.459 32.695 19.3893 32.7037C19.3224 32.711 19.2585 32.7154 19.1974 32.7154ZM19.1974 32.2154C19.3558 32.2154 19.4736 32.1848 19.5521 32.1223C19.6291 32.0613 19.6683 31.993 19.6683 31.9188C19.6683 31.8462 19.6276 31.7779 19.5462 31.7154C19.4678 31.6499 19.3515 31.6165 19.1974 31.6165C19.0375 31.6165 18.9198 31.6485 18.8428 31.7095C18.7643 31.7677 18.7265 31.8345 18.7265 31.9072C18.7265 31.9857 18.7643 32.0569 18.8428 32.1223C18.9241 32.1848 19.0419 32.2154 19.1974 32.2154Z" fill="#292929"/>
</g>
</g>
<defs>
<clipPath id="clip0_253_784">
<rect width="80" height="40" fill="white"/>
</clipPath>
</defs>
</svg>
